<?xml version="1.0" standalone="no"?>
<!DOCTYPE svg PUBLIC "-//W3C//DTD SVG 20010904//EN"
 "http://www.w3.org/TR/2001/REC-SVG-20010904/DTD/svg10.dtd">
<svg version="1.0" xmlns="http://www.w3.org/2000/svg"
 width="16.000000pt" height="16.000000pt" viewBox="0 0 16.000000 16.000000"
 preserveAspectRatio="xMidYMid meet">
<metadata>
Created by potrace 1.11, written by Peter Selinger 2001-2013
</metadata>
<g transform="translate(0.000000,16.000000) scale(0.003125,-0.003125)"
fill="#000000" stroke="none">
<path d="M643 5101 c-72 -24 -127 -65 -163 -119 -57 -86 -60 -113 -60 -479 l0
-333 -100 0 -100 0 0 -160 0 -160 100 0 100 0 0 -545 0 -545 -110 0 -110 0 0
-160 0 -160 110 0 110 0 0 -510 0 -510 -105 0 -105 0 0 -160 0 -160 105 0 105
0 1 -402 c0 -222 3 -416 5 -433 15 -95 90 -189 184 -234 52 -25 64 -26 253
-29 l197 -4 0 551 0 551 55 0 55 0 0 160 0 160 -55 0 -55 0 0 510 0 510 50 0
50 0 0 160 0 160 -50 0 -50 0 0 545 0 545 60 0 60 0 0 160 0 160 -60 0 -60 0
0 475 0 475 -182 0 c-150 -1 -193 -4 -235 -19z"/>
<path d="M1380 2560 l0 -2560 1638 2 1637 3 56 26 c71 33 125 87 158 158 l26
56 0 2315 0 2315 -26 56 c-33 71 -87 125 -158 158 l-56 26 -1637 3 -1638 2 0
-2560z m1875 1306 c255 -75 404 -345 330 -598 -58 -199 -252 -348 -454 -348
-343 0 -580 336 -460 654 24 66 91 158 146 202 58 47 153 91 228 106 43 9 153
0 210 -16z m5 -1158 c106 -20 236 -92 331 -183 178 -170 295 -431 326 -721 17
-164 3 -245 -55 -323 -51 -68 -102 -107 -199 -153 -209 -99 -487 -128 -793
-83 -46 7 -169 39 -205 54 -152 64 -252 144 -296 236 -50 104 -26 380 52 592
100 277 304 496 529 569 94 30 196 34 310 12z"/>
</g>
</svg>
